<mxfile host="65bd71144e">
    <diagram id="_9fT6nVMINDXW0Le0B7S" name="Page-1">
        <mxGraphModel dx="399" dy="358" grid="1" gridSize="10" guides="1" tooltips="1" connect="1" arrows="1" fold="1" page="1" pageScale="1" pageWidth="850" pageHeight="1100" math="0" shadow="0">
            <root>
                <mxCell id="0"/>
                <mxCell id="1" parent="0"/>
                <mxCell id="2" value="Action Engine" style="rounded=1;whiteSpace=wrap;html=1;verticalAlign=top;fillColor=#fff2cc;strokeColor=#d6b656;" parent="1" vertex="1">
                    <mxGeometry x="370" y="470" width="140" height="60" as="geometry"/>
                </mxCell>
                <mxCell id="3" value="Security Event to Action Mapping" style="rounded=1;whiteSpace=wrap;html=1;fillColor=#fff2cc;strokeColor=#d6b656;" parent="1" vertex="1">
                    <mxGeometry x="400" y="510" width="140" height="40" as="geometry"/>
                </mxCell>
                <mxCell id="5" value="Events&lt;div&gt;(JSONs)&lt;/div&gt;" style="edgeStyle=orthogonalEdgeStyle;html=1;dashed=1;" parent="1" edge="1">
                    <mxGeometry relative="1" as="geometry">
                        <mxPoint x="230" y="500" as="sourcePoint"/>
                        <mxPoint as="offset"/>
                        <mxPoint x="370" y="500" as="targetPoint"/>
                    </mxGeometry>
                </mxCell>
                <mxCell id="7" value="Remediate Actions&lt;div&gt;(eg. REST API Calls)&lt;/div&gt;" style="edgeStyle=orthogonalEdgeStyle;html=1;exitX=1;exitY=0.5;exitDx=0;exitDy=0;dashed=1;" parent="1" source="2" edge="1">
                    <mxGeometry x="0.1256" relative="1" as="geometry">
                        <mxPoint x="610" y="510" as="sourcePoint"/>
                        <mxPoint x="680" y="500" as="targetPoint"/>
                        <mxPoint as="offset"/>
                    </mxGeometry>
                </mxCell>
            </root>
        </mxGraphModel>
    </diagram>
</mxfile>